<?xml version="1.0" standalone="no"?>
<!DOCTYPE svg PUBLIC "-//W3C//DTD SVG 20010904//EN"
 "http://www.w3.org/TR/2001/REC-SVG-20010904/DTD/svg10.dtd">
<svg version="1.0" xmlns="http://www.w3.org/2000/svg"
 width="1000.000000pt" height="908.000000pt" viewBox="0 0 1000.000000 908.000000"
 preserveAspectRatio="xMidYMid meet">
<metadata>
Created by potrace 1.16, written by Peter Selinger 2001-2019
</metadata>
<g transform="translate(0.000000,908.000000) scale(0.100000,-0.100000)"
fill="#000000" stroke="none">
<path d="M4585 8770 c-226 -17 -436 -58 -647 -126 -1067 -344 -1817 -1260
-1943 -2374 -19 -162 -19 -450 0 -615 38 -339 124 -633 275 -940 190 -385 445
-695 810 -986 184 -147 479 -309 735 -404 127 -47 188 -46 238 4 l32 31 3 291
3 291 -68 -9 c-37 -4 -151 -8 -253 -8 -177 0 -189 1 -273 29 -174 57 -261 135
-344 306 -111 229 -200 350 -311 423 -166 110 -161 182 12 180 171 -1 314
-101 459 -324 76 -116 195 -207 321 -247 144 -45 476 11 476 80 0 74 90 273
143 317 9 7 17 17 17 21 0 4 -48 15 -107 24 -526 87 -836 283 -1015 641 -68
136 -109 289 -133 494 -35 298 -3 537 99 739 37 74 114 191 151 232 l23 25
-25 90 c-21 76 -25 112 -25 230 -1 145 16 248 60 375 l19 55 68 3 c140 6 362
-76 606 -223 l107 -65 84 20 c233 55 319 64 608 65 297 0 365 -6 586 -56 l131
-30 89 57 c226 142 429 222 586 231 l98 6 16 -39 c64 -152 90 -401 59 -559
-10 -49 -23 -105 -31 -122 -12 -31 -11 -35 23 -75 110 -132 181 -272 224 -443
39 -156 36 -470 -6 -675 -118 -571 -467 -872 -1132 -976 l-111 -18 39 -45 c47
-53 93 -144 114 -226 30 -118 36 -243 30 -645 -6 -437 -5 -448 54 -487 47 -32
108 -30 207 6 551 202 1038 584 1361 1066 105 157 168 273 261 475 35 77 109
297 137 410 104 406 112 857 24 1284 -206 996 -982 1829 -1968 2111 -318 91
-681 129 -996 105z"/>
<path d="M1215 2828 c-397 -34 -679 -246 -809 -606 -73 -203 -98 -378 -99
-677 0 -193 3 -251 22 -360 43 -255 127 -446 259 -587 130 -137 272 -216 486
-266 103 -24 128 -26 346 -26 209 0 245 2 329 22 184 44 384 133 395 176 3 12
6 290 6 618 0 529 -2 598 -16 612 -13 14 -65 16 -417 16 -221 0 -408 -4 -415
-8 -10 -7 -13 -60 -15 -221 -2 -179 0 -213 13 -221 8 -5 86 -10 173 -10 l157
0 -2 -242 -3 -242 -35 -8 c-19 -4 -85 -10 -145 -14 -322 -20 -498 108 -582
423 -25 93 -27 111 -27 348 -1 228 1 258 22 340 34 134 91 243 163 309 117
109 230 142 479 140 162 -1 253 -14 397 -56 27 -8 46 -9 52 -3 8 9 101 390
101 415 0 23 -149 78 -285 104 -80 16 -334 37 -410 35 -22 -1 -85 -6 -140 -11z"/>
<path d="M4467 2734 c-4 -4 -7 -539 -7 -1189 0 -905 3 -1184 12 -1193 16 -16
450 -17 479 -2 18 10 19 27 19 520 l0 510 348 -2 347 -3 3 -505 c2 -461 4
-506 19 -517 24 -18 452 -18 476 0 16 11 17 92 15 1197 l-3 1185 -250 0 -250
0 -3 -442 -2 -443 -350 0 -350 0 -2 443 -3 442 -246 3 c-135 1 -248 -1 -252
-4z"/>
<path d="M8146 2724 c-3 -9 -6 -541 -6 -1184 0 -1049 2 -1170 16 -1184 13 -13
43 -16 173 -16 178 0 188 4 197 65 10 68 11 69 47 41 48 -37 191 -101 272
-122 53 -14 107 -18 225 -18 134 0 165 3 228 23 208 66 323 227 379 531 14 74
17 149 17 340 0 219 -2 255 -22 340 -58 244 -176 390 -368 456 -72 25 -92 28
-224 28 -129 -1 -155 -4 -233 -27 -49 -15 -110 -39 -138 -52 l-49 -25 0 394
c0 217 -3 401 -6 410 -5 14 -37 16 -254 16 -217 0 -249 -2 -254 -16z m895
-1141 c71 -36 112 -97 134 -198 23 -100 17 -422 -8 -501 -39 -119 -88 -156
-217 -162 -91 -4 -173 11 -256 48 l-44 19 0 374 0 375 50 21 c136 58 255 67
341 24z"/>
<path d="M2590 2681 c-122 -40 -196 -131 -207 -252 -11 -120 60 -242 169 -289
73 -31 185 -25 251 13 245 144 159 519 -122 533 -36 2 -77 0 -91 -5z"/>
<path d="M3362 2438 c-8 -8 -10 -53 -6 -162 3 -83 2 -187 -3 -230 l-8 -80 -75
-18 c-41 -10 -99 -25 -127 -34 l-53 -15 0 -162 c0 -114 4 -167 12 -175 8 -8
52 -12 130 -12 l118 0 2 -112 c1 -62 3 -243 3 -403 1 -264 3 -297 23 -368 29
-104 64 -167 129 -228 98 -93 223 -132 428 -133 128 0 259 20 293 47 17 14 17
353 0 363 -7 5 -65 8 -128 9 -87 0 -122 4 -145 17 -43 23 -74 59 -85 99 -6 19
-10 182 -10 371 l0 338 174 0 c135 0 176 3 185 14 8 9 11 74 9 212 l-3 199
-180 5 -180 5 -5 230 -5 230 -240 3 c-176 2 -244 -1 -253 -10z"/>
<path d="M2410 1961 c-16 -31 -14 -1572 3 -1595 11 -15 38 -17 241 -20 212 -3
230 -2 247 15 18 18 19 50 19 807 0 600 -3 791 -12 800 -9 9 -78 12 -250 12
-224 0 -238 -1 -248 -19z"/>
<path d="M6415 1964 c-15 -15 -16 -71 -12 -618 3 -515 6 -611 20 -671 44 -182
137 -284 312 -342 75 -25 92 -27 260 -27 168 0 186 2 270 28 50 15 131 47 181
72 50 24 93 44 96 44 3 0 8 -22 12 -49 4 -31 12 -51 22 -55 31 -12 309 -7 322
6 17 17 17 1599 0 1616 -9 9 -77 12 -243 12 -166 0 -234 -3 -243 -12 -9 -9
-12 -154 -12 -590 l0 -578 -24 -15 c-56 -37 -132 -58 -226 -62 -85 -4 -100 -2
-139 19 -30 15 -52 36 -65 63 -20 39 -21 57 -24 594 -2 379 -6 559 -14 568 -8
10 -64 13 -244 13 -202 0 -235 -2 -249 -16z"/>
</g>
</svg>
